<?xml version="1.0" encoding="UTF-8"?> <svg xmlns="http://www.w3.org/2000/svg" id="Layer_1" data-name="Layer 1" viewBox="0 0 635.41 1279"><path d="M764.58,755.78A74,74,0,0,1,727,641.19a6,6,0,0,0,.57-.93,6.31,6.31,0,0,0-10.79-6.48,86.67,86.67,0,0,0,.38,103.16,87.39,87.39,0,0,0,43.67,30.9,6.33,6.33,0,0,0,7.9-4.16,6.3,6.3,0,0,0-4.15-7.9Z" transform="translate(-482.29)"></path><path d="M926.44,625.82a55.61,55.61,0,0,0-10.84-33.13l-40-59.34a6.32,6.32,0,0,0-10.47,0l-16.85,25-52.08-77.31a6.31,6.31,0,0,0-10.47,0l-89.4,132.71a117.44,117.44,0,1,0,211,54.1A55.92,55.92,0,0,0,926.44,625.82Zm-56.05-77.64,34.74,51.56a3.62,3.62,0,0,0,.22.32,43.42,43.42,0,1,1-69.91,0l.21-.3,17.89-26.55.1-.15ZM895.8,683.3a104.81,104.81,0,1,1-189.17-62.18l.22-.32L791,495.88l49.7,73.78-15.52,23a56,56,0,0,0,70.36,83.21q.26,3.69.26,7.4Z" transform="translate(-482.29)"></path><path d="M848.13,624.28A21.48,21.48,0,0,1,850,615.5a6.31,6.31,0,0,0-11.54-5.13,34.29,34.29,0,0,0,12.29,42.4,6.22,6.22,0,0,0,3.5,1.07,6.31,6.31,0,0,0,3.52-11.56,21.63,21.63,0,0,1-9.62-18Z" transform="translate(-482.29)"></path><path d="M788,764.53a6.31,6.31,0,1,0-7.06,8.6A6.36,6.36,0,0,0,788,764.53Z" transform="translate(-482.29)"></path><path d="M867.07,658.53a6.31,6.31,0,1,0,0-10.5A6.34,6.34,0,0,0,867.07,658.53Z" transform="translate(-482.29)"></path><path d="M1046.78,0H553.22a71,71,0,0,0-70.93,70.92V1208.08A71,71,0,0,0,553.22,1279h493.56a71,71,0,0,0,70.93-70.92V70.92A71,71,0,0,0,1046.78,0ZM1102,1208.08a55.24,55.24,0,0,1-55.18,55.18H553.22A55.24,55.24,0,0,1,498,1208.08V70.92a55.24,55.24,0,0,1,55.18-55.18h493.56A55.24,55.24,0,0,1,1102,70.92Z" transform="translate(-482.29)"></path><path d="M856.8,62.32H742.17a7.88,7.88,0,0,1,0-15.75H856.8a7.88,7.88,0,0,1,0,15.75Z" transform="translate(-482.29)"></path><path d="M711,62.32h-22.2a7.88,7.88,0,0,1,0-15.75H711a7.88,7.88,0,1,1,0,15.75Z" transform="translate(-482.29)"></path><path d="M884.38,62.31a7.88,7.88,0,0,1-5.57-13.44,8.12,8.12,0,0,1,11.11,0,7.87,7.87,0,0,1-5.54,13.44Z" transform="translate(-482.29)"></path></svg> 