<?xml version="1.0" encoding="UTF-8"?> <svg xmlns="http://www.w3.org/2000/svg" id="_ëîé_1" data-name="‘ëîé_1" viewBox="0 0 2001 2001"><defs><style>.cls-1,.cls-2,.cls-3{fill:none;}.cls-1{stroke:#fff;}.cls-1,.cls-2,.cls-3,.cls-4{stroke-miterlimit:10;}.cls-2,.cls-3,.cls-4{stroke:#000;}.cls-2{stroke-width:18px;}.cls-3{stroke-width:16px;}.cls-4{fill:#fff;stroke-width:14px;}.cls-5{fill:#242833;}</style></defs><rect class="cls-1" x="0.5" y="0.5" width="2000" height="2000"></rect><rect class="cls-2" x="684.692" y="734.963" width="570.275" height="485.691" rx="12"></rect><line class="cls-3" x1="692.13" y1="1100.72" x2="1247.529" y2="1100.72"></line><line class="cls-3" x1="969.83" y1="1109.925" x2="969.83" y2="1215.484"></line><path class="cls-4" d="M1232.43,1079.194a27.413,27.413,0,0,0-38.469,1.925,27.419,27.419,0,0,0-36.019-.441l-20.321-52.117a27.821,27.821,0,0,0-34.98-16.172,27.425,27.425,0,0,0-16.348,35.779l51.123,131.117-14.081-6.572c-13.514-6.305-29.859-.746-36.437,12.4a27.386,27.386,0,0,0,12.87,37.093l81.361,38.886a45.855,45.855,0,0,0,36.288,1.342l69.306-27.023a45.727,45.727,0,0,0,25.963-59.148l-34.512-88.515A27.436,27.436,0,0,0,1232.43,1079.194Z" transform="translate(0.5 0.5)"></path><path class="cls-5" d="M1619.24,21.245H383.36c-73.77,0-134.13,60.38-134.13,134.15v215.47h-.59a2,2,0,0,0-2.009,1.991,1.657,1.657,0,0,0,.009.2v87.08a2,2,0,0,0,1.8,2.181c.066.006.132.009.2.009h.59v145a3.85,3.85,0,0,0-2.56,3.65v165.19a4,4,0,0,0,2.56,3.71v77a3.868,3.868,0,0,0-2.56,3.68v165.17a3.83,3.83,0,0,0,2.56,3.66v815.25c0,73.8,60.36,134.12,134.13,134.12H1619.24c73.76,0,134.13-60.32,134.13-134.12V155.4C1753.37,81.625,1693.02,21.245,1619.24,21.245Zm44.17,1794.48H339.21V184.355h1324.2Z" transform="translate(0.5 0.5)"></path></svg> 